# xmcd
#
# Track frame offsets:
#	150
#	25357
#	44414
#	64521
#	81852
#	97833
#	113739
#	133321
#	156801
#	174657
#	187113
#	201519
#	219451
#	238208
#
# Disc length: 3451 seconds
#
# Revision: 1
# Processed by: cddbd v1.5.2PL0 Copyright (c) Steve Scherf et al.
# Submitted via: audiograbber 1.83.01
#
DISCID=cb0d790e
DTITLE=J.J. Cale and Eric Clapton - The Road to Escondido
DYEAR=2006
DGENRE=Blues - Rock
TTITLE0=Danger
TTITLE1=Heads In Georgia
TTITLE2=Missing Person
TTITLE3=When The War Is Over
TTITLE4=Sporting Life Blues
TTITLE5=Dead End Road
TTITLE6=It's Easy
TTITLE7=Hard To Thrill
TTITLE8=Anyway The Wind Blows
TTITLE9=Three Little Girls
TTITLE10=Don't Cry Sister
TTITLE11=Last Will And Testament
TTITLE12=Who Am I Telling You?
TTITLE13=Ride The River
EXTD=
EXTT0=
EXTT1=
EXTT2=
EXTT3=
EXTT4=
EXTT5=
EXTT6=
EXTT7=
EXTT8=
EXTT9=
EXTT10=
EXTT11=
EXTT12=
EXTT13=
PLAYORDER=
